<svg width="54" height="54" viewBox="0 0 54 54" fill="none" xmlns="http://www.w3.org/2000/svg">
<g filter="url(#filter0_d)">
<circle cx="27" cy="23" r="23" fill="white"/>
<rect x="22" y="14" width="9" height="8" rx="3" transform="rotate(-90 22 14)" fill="#111111" fill-opacity="0.77"/>
<rect x="22" y="27" width="8" height="8" rx="3" transform="rotate(-90 22 27)" fill="#111111" fill-opacity="0.77"/>
<rect x="22" y="41" width="8" height="8" rx="3" transform="rotate(-90 22 41)" fill="#111111" fill-opacity="0.77"/>
<rect x="33" y="35" width="9" height="8" rx="3" transform="rotate(-90 33 35)" fill="#111111" fill-opacity="0.77"/>
<rect x="11" y="35" width="9" height="9" rx="3" transform="rotate(-90 11 35)" fill="#111111" fill-opacity="0.77"/>
<rect x="33" y="20" width="8" height="8" rx="3" transform="rotate(-90 33 20)" fill="#111111" fill-opacity="0.77"/>
<rect x="11" y="20" width="8" height="9" rx="3" transform="rotate(-90 11 20)" fill="#111111" fill-opacity="0.77"/>
<path d="M38.5 15L26.5 8L14 15M38.5 15V30.5L26.5 39M38.5 15L26.5 22.5M26.5 39L15 30.5L14 15M26.5 39V22.5M14 15L26.5 22.5" stroke="#484848"/>
</g>
<defs>
<filter id="filter0_d" x="0" y="0" width="54" height="54" filterUnits="userSpaceOnUse" color-interpolation-filters="sRGB">
<feFlood flood-opacity="0" result="BackgroundImageFix"/>
<feColorMatrix in="SourceAlpha" type="matrix" values="0 0 0 0 0 0 0 0 0 0 0 0 0 0 0 0 0 0 127 0"/>
<feOffset dy="4"/>
<feGaussianBlur stdDeviation="2"/>
<feColorMatrix type="matrix" values="0 0 0 0 0 0 0 0 0 0 0 0 0 0 0 0 0 0 0.25 0"/>
<feBlend mode="normal" in2="BackgroundImageFix" result="effect1_dropShadow"/>
<feBlend mode="normal" in="SourceGraphic" in2="effect1_dropShadow" result="shape"/>
</filter>
</defs>
</svg>
