<svg width="100" height="100" viewBox="0 0 100 100" fill="none" xmlns="http://www.w3.org/2000/svg">
<circle cx="50" cy="50" r="50" fill="white"/>
<path d="M75 37.4516L50.0204 23L24 37.4516M75 37.4516V69.4516L50.0204 87M75 37.4516L50.0204 52.9355M50.0204 87L26.0816 69.4516L24 37.4516M50.0204 87V52.9355M24 37.4516L50.0204 52.9355" stroke="#FF974B" stroke-opacity="0.7" stroke-width="5"/>
<rect x="40" y="28" width="22" height="20" rx="3" transform="rotate(-90 40 28)" fill="#383838"/>
<rect x="40" y="60" width="20" height="20" rx="3" transform="rotate(-90 40 60)" fill="#383838"/>
<rect x="40" y="95" width="20" height="20" rx="3" transform="rotate(-90 40 95)" fill="#383838"/>
<rect x="67" y="80" width="22" height="20" rx="3" transform="rotate(-90 67 80)" fill="#383838"/>
<rect x="13" y="80" width="22" height="22" rx="3" transform="rotate(-90 13 80)" fill="#383838"/>
<rect x="67" y="43" width="20" height="20" rx="3" transform="rotate(-90 67 43)" fill="#383838"/>
<rect x="13" y="43" width="20" height="22" rx="3" transform="rotate(-90 13 43)" fill="#383838"/>
</svg>
